<svg width="11" height="18" viewBox="0 0 11 18" fill="none" xmlns="http://www.w3.org/2000/svg">
<path d="M9.79597 15.7041C10.0073 15.9154 10.1261 16.2021 10.1261 16.501C10.1261 16.7999 10.0073 17.0865 9.79597 17.2978C9.58463 17.5092 9.29799 17.6279 8.9991 17.6279C8.70021 17.6279 8.41357 17.5092 8.20222 17.2978L0.702224 9.79785C0.597345 9.69333 0.514128 9.56914 0.457347 9.4324C0.400566 9.29565 0.371338 9.14904 0.371338 9.00097C0.371338 8.85291 0.400566 8.7063 0.457347 8.56955C0.514128 8.43281 0.597345 8.30862 0.702224 8.2041L8.20222 0.7041C8.41357 0.492755 8.70021 0.374023 8.9991 0.374023C9.29799 0.374023 9.58463 0.492756 9.79597 0.7041C10.0073 0.915444 10.1261 1.20209 10.1261 1.50097C10.1261 1.79986 10.0073 2.08651 9.79597 2.29785L3.09379 9.00004L9.79597 15.7041Z" fill="#0C1831"/>
</svg>
